<svg width="20" height="20" viewBox="0 0 20 20" fill="white" xmlns="http://www.w3.org/2000/svg">
<path d="M5.58928 4.41075C5.26384 4.08531 4.7362 4.08531 4.41076 4.41075C4.08533 4.73619 4.08533 5.26382 4.41076 5.58926L8.82152 10L4.41079 14.4107C4.08535 14.7362 4.08535 15.2638 4.41079 15.5893C4.73623 15.9147 5.26386 15.9147 5.5893 15.5893L10 11.1785L14.4108 15.5893C14.7362 15.9147 15.2638 15.9147 15.5893 15.5893C15.9147 15.2638 15.9147 14.7362 15.5893 14.4108L11.1785 10L15.5893 5.58926C15.9147 5.26382 15.9147 4.73619 15.5893 4.41075C15.2639 4.08531 14.7362 4.08531 14.4108 4.41075L10 8.82151L5.58928 4.41075Z" fill="white"/>
</svg>
